<svg width="170" height="81" viewBox="0 0 170 81" fill="none" xmlns="http://www.w3.org/2000/svg">
<rect x="0.5" y="0.5" width="169" height="80" rx="3.5" stroke="#2196F3"/>
<path d="M56.1462 35.1899H56.1433C53.7453 35.1899 51.8013 36.9175 51.8013 39.0485V39.0511C51.8013 41.1822 53.7453 42.9098 56.1433 42.9098H56.1462C58.5442 42.9098 60.4882 41.1822 60.4882 39.0511V39.0485C60.4882 36.9175 58.5442 35.1899 56.1462 35.1899Z" fill="#2196F3"/>
<path d="M88.195 33.9563C88.1882 30.9963 86.8623 28.1593 84.5074 26.066C82.1525 23.9727 78.9604 22.7937 75.6297 22.787V22.787C72.298 22.7924 69.1045 23.9708 66.7484 26.0642C64.3922 28.1576 63.0655 30.9955 63.0587 33.9563V50.2792C63.0587 50.2792 88.1922 47.7914 88.195 33.9589V33.9563Z" fill="#2196F3"/>
<path d="M43 55.6365C43.006 57.6961 43.9291 59.6698 45.5676 61.1264C47.2061 62.583 49.4267 63.404 51.7442 63.4101C54.0612 63.4041 56.2814 62.5834 57.9197 61.1273C59.5581 59.6713 60.4816 57.6982 60.4884 55.639V44.2814C60.4884 44.2814 43 46.0136 43 55.6365ZM51.7442 57.6715C51.2913 57.6715 50.8486 57.5521 50.472 57.3285C50.0955 57.1049 49.802 56.7871 49.6287 56.4153C49.4554 56.0434 49.41 55.6342 49.4984 55.2395C49.5867 54.8448 49.8048 54.4822 50.125 54.1976C50.4453 53.913 50.8533 53.7192 51.2975 53.6406C51.7416 53.5621 52.202 53.6024 52.6205 53.7564C53.0389 53.9105 53.3965 54.1713 53.6481 54.5059C53.8997 54.8406 54.034 55.234 54.034 55.6365C54.0351 55.9044 53.9767 56.1698 53.8622 56.4176C53.7476 56.6654 53.5791 56.8906 53.3664 57.0804C53.1536 57.2702 52.9008 57.4207 52.6224 57.5235C52.3441 57.6262 52.0456 57.6791 51.7442 57.6791V57.6715Z" fill="#2196F3"/>
<path d="M67.7302 54.0283V58.2939H66.8513V54.0283H67.7302ZM69.4294 55.8506V56.5361H67.4899V55.8506H69.4294ZM69.6345 54.0283V54.7168H67.4899V54.0283H69.6345ZM73.6481 56.0615V56.2637C73.6481 56.5879 73.6042 56.8789 73.5163 57.1367C73.4284 57.3945 73.3044 57.6143 73.1442 57.7959C72.9841 57.9756 72.7927 58.1133 72.57 58.209C72.3493 58.3047 72.1042 58.3525 71.8347 58.3525C71.5671 58.3525 71.322 58.3047 71.0993 58.209C70.8786 58.1133 70.6872 57.9756 70.5251 57.7959C70.363 57.6143 70.237 57.3945 70.1472 57.1367C70.0593 56.8789 70.0153 56.5879 70.0153 56.2637V56.0615C70.0153 55.7354 70.0593 55.4443 70.1472 55.1885C70.235 54.9307 70.3591 54.7109 70.5192 54.5293C70.6813 54.3477 70.8727 54.209 71.0934 54.1133C71.3161 54.0176 71.5612 53.9697 71.8288 53.9697C72.0983 53.9697 72.3434 54.0176 72.5641 54.1133C72.7868 54.209 72.9782 54.3477 73.1384 54.5293C73.3005 54.7109 73.4255 54.9307 73.5134 55.1885C73.6032 55.4443 73.6481 55.7354 73.6481 56.0615ZM72.7604 56.2637V56.0557C72.7604 55.8291 72.7399 55.6299 72.6989 55.458C72.6579 55.2861 72.5974 55.1416 72.5173 55.0244C72.4372 54.9072 72.3395 54.8193 72.2243 54.7607C72.1091 54.7002 71.9772 54.6699 71.8288 54.6699C71.6804 54.6699 71.5485 54.7002 71.4333 54.7607C71.32 54.8193 71.2233 54.9072 71.1432 55.0244C71.0651 55.1416 71.0056 55.2861 70.9645 55.458C70.9235 55.6299 70.903 55.8291 70.903 56.0557V56.2637C70.903 56.4883 70.9235 56.6875 70.9645 56.8613C71.0056 57.0332 71.0661 57.1787 71.1462 57.2979C71.2263 57.415 71.3239 57.5039 71.4391 57.5645C71.5544 57.625 71.6862 57.6553 71.8347 57.6553C71.9831 57.6553 72.1149 57.625 72.2302 57.5645C72.3454 57.5039 72.4421 57.415 72.5202 57.2979C72.5983 57.1787 72.6579 57.0332 72.6989 56.8613C72.7399 56.6875 72.7604 56.4883 72.7604 56.2637ZM76.5016 57.1777C76.5016 57.1016 76.4899 57.0332 76.4665 56.9727C76.445 56.9102 76.404 56.8535 76.3434 56.8027C76.2829 56.75 76.1979 56.6982 76.0886 56.6475C75.9792 56.5967 75.8376 56.5439 75.6638 56.4893C75.4704 56.4268 75.2868 56.3564 75.113 56.2783C74.9411 56.2002 74.7888 56.1094 74.6559 56.0059C74.5251 55.9004 74.4216 55.7783 74.3454 55.6396C74.2712 55.501 74.2341 55.3398 74.2341 55.1562C74.2341 54.9785 74.2731 54.8174 74.3513 54.6729C74.4294 54.5264 74.5388 54.4014 74.6794 54.2979C74.82 54.1924 74.986 54.1113 75.1774 54.0547C75.3708 53.998 75.5827 53.9697 75.8132 53.9697C76.1276 53.9697 76.402 54.0264 76.6364 54.1396C76.8708 54.2529 77.0524 54.4082 77.1813 54.6055C77.3122 54.8027 77.3776 55.0283 77.3776 55.2822H76.5046C76.5046 55.1572 76.4782 55.0479 76.4255 54.9541C76.3747 54.8584 76.2966 54.7832 76.1911 54.7285C76.0876 54.6738 75.9567 54.6465 75.7985 54.6465C75.6462 54.6465 75.5192 54.6699 75.4177 54.7168C75.3161 54.7617 75.2399 54.8232 75.1891 54.9014C75.1384 54.9775 75.113 55.0635 75.113 55.1592C75.113 55.2314 75.1306 55.2969 75.1657 55.3555C75.2028 55.4141 75.2575 55.4688 75.3298 55.5195C75.402 55.5703 75.4909 55.6182 75.5964 55.6631C75.7018 55.708 75.8239 55.752 75.9626 55.7949C76.195 55.8652 76.3991 55.9443 76.5749 56.0322C76.7526 56.1201 76.9011 56.2188 77.0202 56.3281C77.1393 56.4375 77.2292 56.5615 77.2897 56.7002C77.3503 56.8389 77.3806 56.9961 77.3806 57.1719C77.3806 57.3574 77.3444 57.5234 77.2722 57.6699C77.1999 57.8164 77.0954 57.9404 76.9587 58.042C76.822 58.1436 76.6589 58.2207 76.4694 58.2734C76.28 58.3262 76.0681 58.3525 75.8337 58.3525C75.6227 58.3525 75.4147 58.3252 75.2097 58.2705C75.0046 58.2139 74.8181 58.1289 74.6501 58.0156C74.4841 57.9023 74.3513 57.7578 74.2516 57.582C74.152 57.4062 74.1022 57.1982 74.1022 56.958H74.9841C74.9841 57.0908 75.0046 57.2031 75.0456 57.2949C75.0866 57.3867 75.1442 57.4609 75.2184 57.5176C75.2946 57.5742 75.3845 57.6152 75.488 57.6406C75.5934 57.666 75.7087 57.6787 75.8337 57.6787C75.986 57.6787 76.111 57.6572 76.2087 57.6143C76.3083 57.5713 76.3815 57.5117 76.4284 57.4355C76.4772 57.3594 76.5016 57.2734 76.5016 57.1777ZM79.8854 54.0283V58.2939H79.0095V54.0283H79.8854ZM81.1979 54.0283V54.7168H77.7175V54.0283H81.1979ZM84.5612 57.6084V58.2939H82.2907V57.6084H84.5612ZM82.5778 54.0283V58.2939H81.6989V54.0283H82.5778ZM84.2653 55.7656V56.4336H82.2907V55.7656H84.2653ZM84.5583 54.0283V54.7168H82.2907V54.0283H84.5583ZM85.0739 54.0283H86.6647C86.9909 54.0283 87.2712 54.0771 87.5056 54.1748C87.7419 54.2725 87.9235 54.417 88.0505 54.6084C88.1774 54.7998 88.2409 55.0352 88.2409 55.3145C88.2409 55.543 88.2018 55.7393 88.1237 55.9033C88.0475 56.0654 87.9391 56.2012 87.7985 56.3105C87.6599 56.418 87.4968 56.5039 87.3093 56.5684L87.0309 56.7148H85.6481L85.6423 56.0293H86.6706C86.8249 56.0293 86.9528 56.002 87.0544 55.9473C87.1559 55.8926 87.2321 55.8164 87.2829 55.7188C87.3356 55.6211 87.362 55.5078 87.362 55.3789C87.362 55.2422 87.3366 55.124 87.2858 55.0244C87.235 54.9248 87.1579 54.8486 87.0544 54.7959C86.9509 54.7432 86.821 54.7168 86.6647 54.7168H85.9528V58.2939H85.0739V54.0283ZM87.4587 58.2939L86.486 56.3926L87.4147 56.3867L88.3991 58.2529V58.2939H87.4587ZM92.0729 56.7734H90.986V56.0879H92.0729C92.2409 56.0879 92.3776 56.0605 92.4831 56.0059C92.5886 55.9492 92.6657 55.8711 92.7145 55.7715C92.7634 55.6719 92.7878 55.5596 92.7878 55.4346C92.7878 55.3076 92.7634 55.1895 92.7145 55.0801C92.6657 54.9707 92.5886 54.8828 92.4831 54.8164C92.3776 54.75 92.2409 54.7168 92.0729 54.7168H91.2907V58.2939H90.4118V54.0283H92.0729C92.4069 54.0283 92.6931 54.0889 92.9313 54.21C93.1716 54.3291 93.3552 54.4941 93.4821 54.7051C93.6091 54.916 93.6725 55.1572 93.6725 55.4287C93.6725 55.7041 93.6091 55.9424 93.4821 56.1436C93.3552 56.3447 93.1716 56.5 92.9313 56.6094C92.6931 56.7188 92.4069 56.7734 92.0729 56.7734ZM97.1413 57.6084V58.2939H94.8708V57.6084H97.1413ZM95.1579 54.0283V58.2939H94.279V54.0283H95.1579ZM96.8454 55.7656V56.4336H94.8708V55.7656H96.8454ZM97.1384 54.0283V54.7168H94.8708V54.0283H97.1384ZM99.6198 54.0283V58.2939H98.7438V54.0283H99.6198ZM100.932 54.0283V54.7168H97.4518V54.0283H100.932ZM104.296 57.6084V58.2939H102.025V57.6084H104.296ZM102.312 54.0283V58.2939H101.433V54.0283H102.312ZM104 55.7656V56.4336H102.025V55.7656H104ZM104.293 54.0283V54.7168H102.025V54.0283H104.293ZM104.808 54.0283H106.399C106.725 54.0283 107.006 54.0771 107.24 54.1748C107.476 54.2725 107.658 54.417 107.785 54.6084C107.912 54.7998 107.975 55.0352 107.975 55.3145C107.975 55.543 107.936 55.7393 107.858 55.9033C107.782 56.0654 107.674 56.2012 107.533 56.3105C107.394 56.418 107.231 56.5039 107.044 56.5684L106.765 56.7148H105.383L105.377 56.0293H106.405C106.559 56.0293 106.687 56.002 106.789 55.9473C106.89 55.8926 106.966 55.8164 107.017 55.7188C107.07 55.6211 107.096 55.5078 107.096 55.3789C107.096 55.2422 107.071 55.124 107.02 55.0244C106.969 54.9248 106.892 54.8486 106.789 54.7959C106.685 54.7432 106.555 54.7168 106.399 54.7168H105.687V58.2939H104.808V54.0283ZM107.193 58.2939L106.22 56.3926L107.149 56.3867L108.133 58.2529V58.2939H107.193ZM110.873 57.1777C110.873 57.1016 110.861 57.0332 110.838 56.9727C110.816 56.9102 110.775 56.8535 110.715 56.8027C110.654 56.75 110.569 56.6982 110.46 56.6475C110.35 56.5967 110.209 56.5439 110.035 56.4893C109.841 56.4268 109.658 56.3564 109.484 56.2783C109.312 56.2002 109.16 56.1094 109.027 56.0059C108.896 55.9004 108.793 55.7783 108.716 55.6396C108.642 55.501 108.605 55.3398 108.605 55.1562C108.605 54.9785 108.644 54.8174 108.722 54.6729C108.8 54.5264 108.91 54.4014 109.05 54.2979C109.191 54.1924 109.357 54.1113 109.549 54.0547C109.742 53.998 109.954 53.9697 110.184 53.9697C110.499 53.9697 110.773 54.0264 111.008 54.1396C111.242 54.2529 111.424 54.4082 111.552 54.6055C111.683 54.8027 111.749 55.0283 111.749 55.2822H110.876C110.876 55.1572 110.849 55.0479 110.797 54.9541C110.746 54.8584 110.668 54.7832 110.562 54.7285C110.459 54.6738 110.328 54.6465 110.17 54.6465C110.017 54.6465 109.89 54.6699 109.789 54.7168C109.687 54.7617 109.611 54.8232 109.56 54.9014C109.509 54.9775 109.484 55.0635 109.484 55.1592C109.484 55.2314 109.502 55.2969 109.537 55.3555C109.574 55.4141 109.629 55.4688 109.701 55.5195C109.773 55.5703 109.862 55.6182 109.967 55.6631C110.073 55.708 110.195 55.752 110.334 55.7949C110.566 55.8652 110.77 55.9443 110.946 56.0322C111.124 56.1201 111.272 56.2188 111.391 56.3281C111.51 56.4375 111.6 56.5615 111.661 56.7002C111.721 56.8389 111.752 56.9961 111.752 57.1719C111.752 57.3574 111.716 57.5234 111.643 57.6699C111.571 57.8164 111.466 57.9404 111.33 58.042C111.193 58.1436 111.03 58.2207 110.841 58.2734C110.651 58.3262 110.439 58.3525 110.205 58.3525C109.994 58.3525 109.786 58.3252 109.581 58.2705C109.376 58.2139 109.189 58.1289 109.021 58.0156C108.855 57.9023 108.722 57.7578 108.623 57.582C108.523 57.4062 108.473 57.1982 108.473 56.958H109.355C109.355 57.0908 109.376 57.2031 109.417 57.2949C109.458 57.3867 109.515 57.4609 109.59 57.5176C109.666 57.5742 109.756 57.6152 109.859 57.6406C109.965 57.666 110.08 57.6787 110.205 57.6787C110.357 57.6787 110.482 57.6572 110.58 57.6143C110.679 57.5713 110.753 57.5117 110.799 57.4355C110.848 57.3594 110.873 57.2734 110.873 57.1777Z" fill="#2196F3"/>
</svg>
