<svg width="170" height="81" viewBox="0 0 170 81" fill="none" xmlns="http://www.w3.org/2000/svg">
<rect x="0.5" y="0.5" width="169" height="80" rx="3.5" stroke="#AFB1B8"/>
<path d="M68.4063 63.1885C68.4222 63.1888 68.4379 63.192 68.4524 63.1977C68.4669 63.2034 68.4799 63.2115 68.4908 63.2216L68.7089 63.4301C68.5396 63.5989 68.3304 63.7338 68.0955 63.8258C67.8204 63.9261 67.5239 63.9746 67.2257 63.9679C66.9455 63.973 66.6671 63.9278 66.4078 63.8353C66.1739 63.7503 65.9638 63.6226 65.7916 63.4609C65.6159 63.2932 65.4805 63.0967 65.3935 62.8828C65.2982 62.6445 65.2512 62.3936 65.2545 62.1413C65.2506 61.8873 65.3015 61.635 65.4044 61.3973C65.4997 61.1821 65.6433 60.9856 65.827 60.8192C66.0132 60.6561 66.2359 60.5279 66.4814 60.4425C66.7499 60.3521 67.0359 60.307 67.3239 60.3098C67.5914 60.3042 67.8575 60.3453 68.1064 60.4307C68.3223 60.5121 68.5206 60.6251 68.6926 60.7647L68.5099 60.9874C68.4973 61.0031 68.4816 61.0168 68.4635 61.0277C68.442 61.0406 68.4159 61.0464 68.3899 61.0443C68.3616 61.0426 68.3343 61.0344 68.3109 61.0206L68.2127 60.9614L68.0764 60.8856C68.0175 60.8574 67.9565 60.8329 67.8937 60.8121C67.8128 60.787 67.7299 60.7672 67.6456 60.7529C67.5386 60.7358 67.4299 60.7278 67.3211 60.7292C67.1138 60.7269 66.908 60.7608 66.7159 60.8287C66.5367 60.8916 66.375 60.9869 66.2415 61.1083C66.1055 61.2373 66.0007 61.3888 65.9334 61.5537C65.8566 61.7423 65.8187 61.9412 65.8216 62.1413C65.8183 62.3444 65.8561 62.5465 65.9334 62.7383C65.9999 62.9018 66.1027 63.0523 66.236 63.1814C66.3609 63.3017 66.5157 63.3956 66.6886 63.4562C66.8666 63.5203 67.0576 63.5525 67.2503 63.551C67.3615 63.5524 67.4728 63.5461 67.5829 63.532C67.7627 63.5129 67.9351 63.4587 68.0873 63.3733C68.1636 63.3295 68.2356 63.2804 68.3027 63.2264C68.3307 63.2031 68.3676 63.1896 68.4063 63.1885Z" fill="#AFB1B8"/>
<path d="M74.7044 62.1408C74.7078 62.3922 74.6579 62.642 74.5572 62.8776C74.4684 63.0914 74.3284 63.2863 74.1465 63.4497C73.9646 63.613 73.745 63.741 73.5021 63.8252C72.9683 64.0022 72.3782 64.0022 71.8444 63.8252C71.603 63.7397 71.3848 63.6114 71.2037 63.4486C71.0219 63.2822 70.8809 63.0856 70.7893 62.8705C70.5929 62.3933 70.5929 61.8718 70.7893 61.3946C70.8823 61.1794 71.0231 60.9822 71.2037 60.8142C71.3864 60.6564 71.6045 60.533 71.8444 60.4517C72.3775 60.2716 72.969 60.2716 73.5021 60.4517C73.7443 60.5372 73.9634 60.6655 74.1455 60.8284C74.325 60.9931 74.465 61.1872 74.5572 61.3993C74.6582 61.6366 74.7081 61.8879 74.7044 62.1408ZM74.1319 62.1408C74.1362 61.9398 74.1011 61.7395 74.0283 61.5486C73.9672 61.385 73.8679 61.2342 73.7366 61.1056C73.6087 60.9839 73.4513 60.8884 73.2758 60.826C72.8879 60.6965 72.4586 60.6965 72.0707 60.826C71.8952 60.8884 71.7378 60.9839 71.6099 61.1056C71.4768 61.2335 71.3764 61.3845 71.3155 61.5486C71.1768 61.9342 71.1768 62.3475 71.3155 62.7331C71.377 62.897 71.4773 63.0479 71.6099 63.1761C71.7379 63.2971 71.8953 63.3918 72.0707 63.4533C72.4593 63.5795 72.8872 63.5795 73.2758 63.4533C73.4512 63.3918 73.6086 63.2971 73.7366 63.1761C73.8673 63.0471 73.9665 62.8964 74.0283 62.7331C74.1015 62.5423 74.1365 62.342 74.1319 62.1408Z" fill="#AFB1B8"/>
<path d="M79.0013 62.7617L79.0586 62.8944C79.0804 62.847 79.0995 62.8044 79.1213 62.7617C79.1421 62.7172 79.1657 62.6737 79.1922 62.6315L80.5854 60.4309C80.6127 60.393 80.6372 60.3693 80.6645 60.3622C80.7015 60.3524 80.7403 60.3484 80.779 60.3503H81.1907V63.9295H80.7026V61.2978C80.7026 61.2647 80.7026 61.2268 80.7026 61.1865C80.7 61.1455 80.7 61.1044 80.7026 61.0633L79.3012 63.2947C79.2834 63.3281 79.255 63.3564 79.2192 63.3761C79.1834 63.3959 79.1418 63.4063 79.0995 63.406H79.0204C78.9779 63.4066 78.9362 63.3963 78.9004 63.3765C78.8646 63.3568 78.8362 63.3283 78.8186 63.2947L77.3763 61.0491C77.3763 61.0918 77.3763 61.1344 77.3763 61.177C77.3763 61.2197 77.3763 61.2576 77.3763 61.2907V63.9224H76.9047V60.3503H77.3164C77.355 60.3484 77.3938 60.3524 77.4309 60.3622C77.4647 60.3767 77.4916 60.401 77.5072 60.4309L78.9304 62.6338C78.9584 62.6745 78.9821 62.7174 79.0013 62.7617Z" fill="#AFB1B8"/>
<path d="M84.2443 62.5839V63.9246H83.699V60.3502H84.915C85.1446 60.3464 85.3735 60.3727 85.5939 60.4284C85.7704 60.4718 85.9341 60.5478 86.0738 60.651C86.1949 60.7478 86.2883 60.8679 86.3464 61.0016C86.4108 61.1474 86.4423 61.3026 86.4391 61.4588C86.4415 61.6155 86.4072 61.7711 86.3383 61.9159C86.2727 62.0531 86.172 62.1754 86.0438 62.2736C85.9039 62.3812 85.7395 62.4619 85.5612 62.5105C85.3489 62.5694 85.1269 62.5974 84.9041 62.5934L84.2443 62.5839ZM84.2443 62.2002H84.9041C85.0475 62.2018 85.1901 62.1834 85.3267 62.1457C85.4394 62.1127 85.5433 62.0604 85.6321 61.9917C85.714 61.9262 85.7775 61.8451 85.8175 61.7549C85.8621 61.6594 85.8844 61.5571 85.8829 61.454C85.8893 61.3547 85.8706 61.2553 85.8282 61.1628C85.7859 61.0704 85.7208 60.9871 85.6376 60.9187C85.4293 60.7774 85.1676 60.709 84.9041 60.7268H84.2443V62.2002Z" fill="#AFB1B8"/>
<path d="M91.5731 63.9294H91.1423C91.0991 63.9309 91.0566 63.9191 91.0223 63.8963C90.9914 63.874 90.9671 63.8455 90.9514 63.8133L90.5806 62.9487H88.7185L88.334 63.8133C88.3199 63.845 88.2964 63.8727 88.2659 63.8939C88.2312 63.9181 88.1877 63.9308 88.1432 63.9294H87.7124L89.3483 60.3499H89.9154L91.5731 63.9294ZM88.8739 62.6004H90.4116L89.7627 61.1435C89.7131 61.0339 89.6721 60.9215 89.64 60.8071L89.5773 60.9942C89.5582 61.0511 89.5364 61.1032 89.5173 61.1458L88.8739 62.6004Z" fill="#AFB1B8"/>
<path d="M93.9288 60.3665C93.9614 60.382 93.9894 60.4039 94.0106 60.4305L96.3962 63.1287C96.3962 63.0861 96.3962 63.0435 96.3962 63.0032C96.3962 62.9629 96.3962 62.9226 96.3962 62.8847V60.3499H96.8843V63.9294H96.6116C96.5729 63.9305 96.5345 63.9231 96.4998 63.9081C96.4662 63.8911 96.4365 63.8685 96.4126 63.8418L94.0297 61.1459C94.0323 61.1869 94.0323 61.2281 94.0297 61.2691C94.0297 61.3094 94.0297 61.3449 94.0297 61.3781V63.9294H93.5416V60.3499H93.8306C93.8644 60.3491 93.8979 60.3548 93.9288 60.3665Z" fill="#AFB1B8"/>
<path d="M100.903 62.5058V63.9272H100.358V62.5058L98.85 60.3501H99.3381C99.3801 60.3479 99.4217 60.3588 99.4553 60.3809C99.485 60.4039 99.5099 60.4311 99.5289 60.4614L100.472 61.852C100.51 61.9112 100.543 61.9657 100.57 62.0178C100.598 62.07 100.62 62.1197 100.639 62.1695L100.71 62.0155C100.736 61.9592 100.767 61.9045 100.802 61.852L101.732 60.452C101.751 60.424 101.775 60.3985 101.803 60.3761C101.835 60.3516 101.877 60.3389 101.92 60.3406H102.414L100.903 62.5058Z" fill="#AFB1B8"/>
<path d="M78.7314 54.3431C78.9686 54.3692 79.2086 54.3905 79.4512 54.4094C83.1301 52.9796 86.2422 50.6393 88.3987 47.6812C90.5552 44.723 91.6603 41.2782 91.5759 37.7774L87.5216 34.2548C88.346 37.9821 87.9604 41.8352 86.408 45.3829C84.8555 48.9306 82.1976 52.0331 78.7314 54.3431Z" fill="#AFB1B8"/>
<path d="M77.2837 54.1793L77.3928 54.1982C81.0966 51.8964 83.9205 48.682 85.4993 44.9708C87.078 41.2597 87.3389 37.2223 86.2483 33.3809L80.4737 28.3637C82.8094 32.4877 83.7495 37.1031 83.1848 41.6731C82.6201 46.2432 80.5737 50.58 77.2837 54.1793Z" fill="#AFB1B8"/>
<path d="M96.8679 41.9136C95.8868 45.7602 93.5041 49.2293 90.0735 51.8059C89.0716 52.5626 87.9909 53.2366 86.8454 53.8194C89.6389 53.1061 92.2065 51.8448 94.3502 50.133C96.494 48.4212 98.1566 46.3044 99.21 43.9461L96.8679 41.9136Z" fill="#AFB1B8"/>
<path d="M95.9491 41.3472L92.6146 38.45C92.5509 41.7531 91.4701 44.9811 89.4846 47.7985C87.4991 50.6158 84.6814 52.9198 81.3243 54.4708H81.3406C82.0888 54.4706 82.8362 54.4318 83.5791 54.3547C86.7165 53.2421 89.488 51.472 91.6465 49.2023C93.8049 46.9326 95.2831 44.234 95.9491 41.3472Z" fill="#AFB1B8"/>
<path d="M77.7663 26.2479L73.7883 22.787C70.2322 23.9809 67.1738 26.0799 65.0134 28.8091C62.8529 31.5383 61.6912 34.7706 61.6801 38.0829V38.0829C61.6934 41.743 63.1113 45.2947 65.7093 48.1758C68.3073 51.057 71.9371 53.103 76.0241 53.9901C79.6725 50.128 81.8086 45.3558 82.1219 40.3668C82.4352 35.3778 80.9094 30.432 77.7663 26.2479Z" fill="#AFB1B8"/>
<path d="M105.14 40.8144C105.126 36.4719 103.134 32.3108 99.5997 29.2402C96.0656 26.1696 91.2764 24.439 86.2784 24.4265C83.9688 24.4244 81.6789 24.7947 79.5249 25.5186L103.88 46.6797C104.714 44.8091 105.142 42.8203 105.14 40.8144Z" fill="#AFB1B8"/>
</svg>
