<svg width="170" height="81" viewBox="0 0 170 81" fill="none" xmlns="http://www.w3.org/2000/svg">
<rect x="0.5" y="0.5" width="169" height="80" rx="3.5" stroke="#AFB1B8"/>
<path d="M85.425 41.4952C84.9819 40.9054 84.7699 40.2083 84.8203 39.5066V36.6234C84.8203 35.7396 85.0207 35.0679 85.4216 34.6084C85.8224 34.1489 86.511 33.9201 87.4871 33.9221C88.4044 33.9221 89.0555 34.1176 89.4405 34.5087C89.8605 35.0077 90.0648 35.6178 90.018 36.2333V36.9108H88.3772V36.2245C88.383 35.9999 88.3671 35.7752 88.3296 35.5528C88.306 35.4008 88.2234 35.2602 88.0952 35.154C87.9267 35.0394 87.7145 34.9839 87.5007 34.9985C87.2759 34.984 87.0529 35.0426 86.8756 35.1628C86.7327 35.2804 86.6374 35.4347 86.6038 35.6027C86.5567 35.838 86.5351 36.0766 86.5393 36.3154V39.8146C86.5134 40.1521 86.5858 40.4899 86.7499 40.7971C86.8315 40.9011 86.9448 40.9835 87.0774 41.0353C87.2099 41.087 87.3564 41.1061 87.5007 41.0904C87.7109 41.1054 87.9195 41.0485 88.0816 40.9321C88.2153 40.8175 88.3013 40.668 88.3262 40.5068C88.3645 40.2746 88.3816 40.0402 88.3772 39.8058V39.096H90.018V39.7442C90.0641 40.3857 89.8648 41.0226 89.4507 41.5568C89.0736 41.985 88.4315 42.1991 87.4871 42.1991C86.5427 42.1991 85.8292 41.9704 85.425 41.4952Z" fill="#AFB1B8"/>
<path d="M92.2569 41.5245C91.8424 41.0758 91.6352 40.4217 91.6352 39.5565V36.5237C91.6352 35.6672 91.8424 35.019 92.2569 34.5791C92.6713 34.1391 93.3644 33.9201 94.3359 33.9221C95.3007 33.9221 95.9904 34.1411 96.4048 34.5791C96.8193 35.019 97.0299 35.6672 97.0299 36.5237V39.5565C97.0299 40.4129 96.8193 41.0699 96.398 41.5216C95.9768 41.9733 95.2906 42.1991 94.3359 42.1991C93.3813 42.1991 92.6747 41.9704 92.2569 41.5245ZM95.1003 40.7971C95.2487 40.516 95.3163 40.2081 95.2974 39.8996V36.1864C95.3164 35.8839 95.2499 35.5819 95.1037 35.3065C95.0205 35.2003 94.9043 35.1166 94.7686 35.0647C94.6328 35.0128 94.4829 34.995 94.3359 35.0132C94.1885 34.9954 94.0383 35.0135 93.9021 35.0653C93.7659 35.1171 93.6491 35.2006 93.5648 35.3065C93.4154 35.5811 93.3477 35.8835 93.3678 36.1864V39.9172C93.3471 40.2258 93.4148 40.5341 93.5648 40.8147C93.6604 40.9094 93.7785 40.9852 93.9109 41.0371C94.0433 41.0891 94.1871 41.116 94.3326 41.116C94.478 41.116 94.6218 41.0891 94.7542 41.0371C94.8866 40.9852 95.0047 40.9094 95.1003 40.8147V40.7971Z" fill="#AFB1B8"/>
<path d="M99.0035 34.0106H100.77L102.098 39.6062L103.457 34.0106H105.176L105.35 42.0873H104.079L103.943 36.474L102.632 42.0873H101.613L100.254 36.4535L100.128 42.0873H98.8439L99.0035 34.0106Z" fill="#AFB1B8"/>
<path d="M107.33 34.0106H110.082C111.667 34.0106 112.46 34.775 112.46 36.3039C112.46 37.7684 111.625 38.4996 109.956 38.4976H109.019V42.0873H107.32L107.33 34.0106ZM109.681 37.4624C109.849 37.4808 110.019 37.4675 110.181 37.4234C110.342 37.3794 110.49 37.3056 110.615 37.2072C110.81 36.9344 110.896 36.6141 110.86 36.2952C110.869 36.0488 110.841 35.8024 110.778 35.562C110.754 35.4817 110.712 35.4063 110.653 35.3404C110.595 35.2744 110.522 35.2191 110.439 35.1778C110.203 35.0801 109.942 35.0357 109.681 35.0487H109.022V37.4624H109.681Z" fill="#AFB1B8"/>
<path d="M114.909 34.0106H116.734L118.606 42.0873H117.022L116.652 40.225H115.025L114.644 42.0873H113.038L114.909 34.0106ZM116.469 39.2895L115.833 35.8992L115.198 39.2895H116.469Z" fill="#AFB1B8"/>
<path d="M120.117 34.0106H121.306L123.582 38.6179V34.0106H124.992V42.0873H123.861L121.571 37.2776V42.0873H120.114L120.117 34.0106Z" fill="#AFB1B8"/>
<path d="M128.294 39.0077L126.402 34.0219H127.996L129.151 37.2245L130.234 34.0219H131.794L129.925 39.0077V42.0872H128.294V39.0077Z" fill="#AFB1B8"/>
<path d="M88.0477 45.6185V46.0409H86.6617V49.3228H86.0807V46.0409H84.6879V45.6185H88.0477Z" fill="#AFB1B8"/>
<path d="M92.3927 49.3231H91.9442C91.8987 49.3256 91.8538 49.313 91.8185 49.2879C91.7846 49.2664 91.7587 49.2369 91.7438 49.2029L91.3429 48.323H89.4201L89.0192 49.2029C89.0078 49.2397 88.9869 49.2738 88.958 49.3026C88.9225 49.3271 88.8778 49.3397 88.8324 49.3378H88.3839L90.0825 45.6337H90.6737L92.3927 49.3231ZM89.5797 47.9476H91.1833L90.5038 46.4402C90.4537 46.3262 90.4117 46.2096 90.3781 46.0912C90.3543 46.1616 90.3339 46.229 90.3136 46.2877L90.2524 46.4431L89.5797 47.9476Z" fill="#AFB1B8"/>
<path d="M95.3211 48.9593C95.4275 48.9641 95.5341 48.9641 95.6404 48.9593C95.7323 48.9511 95.8232 48.9364 95.9122 48.9153C95.9954 48.8977 96.0772 48.8751 96.1568 48.8478C96.2316 48.8214 96.3063 48.7891 96.3844 48.7569V47.9239H95.705C95.6882 47.9247 95.6714 47.9225 95.6556 47.9174C95.6398 47.9124 95.6254 47.9046 95.6133 47.8945C95.6021 47.8862 95.5933 47.8758 95.5874 47.8641C95.5815 47.8524 95.5787 47.8398 95.5793 47.8271V47.5425H96.8974V48.9622C96.7898 49.0287 96.6762 49.0875 96.5577 49.1382C96.4366 49.1898 96.3104 49.232 96.1806 49.2643C96.0417 49.2996 95.8996 49.3251 95.7559 49.3406C95.5912 49.3564 95.4257 49.3642 95.26 49.3641C94.967 49.3662 94.6763 49.3194 94.4038 49.2262C94.1495 49.1379 93.9184 49.0062 93.7244 48.839C93.5353 48.6701 93.3864 48.4708 93.2862 48.2524C93.1791 48.0068 93.1261 47.7462 93.1299 47.4839C93.1263 47.2199 93.1781 46.9576 93.2828 46.7095C93.3805 46.49 93.5297 46.2903 93.721 46.1229C93.9149 45.9562 94.1461 45.8255 94.4005 45.7386C94.6914 45.6441 95.0001 45.5974 95.3109 45.6008C95.4691 45.6006 95.627 45.6114 95.7831 45.633C95.9212 45.6524 96.0567 45.6839 96.1874 45.7269C96.3062 45.7654 96.4201 45.8146 96.5271 45.8735C96.6312 45.9314 96.7301 45.9962 96.8227 46.0671L96.6596 46.2959C96.6468 46.3168 96.6278 46.3344 96.6045 46.3468C96.5812 46.3591 96.5545 46.3659 96.5271 46.3663C96.4895 46.3653 96.453 46.3551 96.4218 46.337C96.3708 46.3135 96.3165 46.2842 96.2553 46.249C96.1831 46.2099 96.1069 46.1765 96.0277 46.1493C95.9265 46.1142 95.8219 46.0867 95.7152 46.0671C95.5729 46.0445 95.4284 46.0337 95.2837 46.0349C95.0596 46.0327 94.8371 46.0676 94.6281 46.1375C94.439 46.203 94.2686 46.3031 94.1287 46.4309C93.9879 46.564 93.8803 46.7208 93.8127 46.8914C93.661 47.2926 93.661 47.725 93.8127 48.1262C93.8871 48.3005 94.0028 48.4593 94.1525 48.5926C94.2918 48.7197 94.4609 48.8197 94.6485 48.8859C94.8645 48.95 95.0934 48.9749 95.3211 48.9593Z" fill="#AFB1B8"/>
<path d="M100.736 48.9005H102.591V49.3228H100.169V45.6185H100.75L100.736 48.9005Z" fill="#AFB1B8"/>
<path d="M104.521 49.3228H103.94V45.6185H104.521V49.3228Z" fill="#AFB1B8"/>
<path d="M106.681 45.6361C106.716 45.6531 106.746 45.6761 106.77 45.7036L109.253 48.4959C109.25 48.452 109.25 48.4079 109.253 48.3639C109.253 48.3229 109.253 48.2818 109.253 48.2437V45.6039H109.759V49.3231H109.467C109.424 49.3261 109.38 49.319 109.341 49.3025C109.306 49.2841 109.275 49.2602 109.25 49.2321L106.77 46.4428C106.77 46.4867 106.77 46.5278 106.77 46.5689C106.77 46.6099 106.77 46.6481 106.77 46.6833V49.3231H106.284V45.6185H106.586C106.619 45.6186 106.651 45.6246 106.681 45.6361Z" fill="#AFB1B8"/>
<path d="M114.036 45.6185V46.0262H111.978V47.2493H113.646V47.6423H111.978V48.9064H114.036V49.3141H111.38V45.6185H114.036Z" fill="#AFB1B8"/>
<path d="M53.1617 22.7424L78.9568 29.0657V51.2237L53.1617 44.9033V22.7424ZM51.5073 20.8536V45.9797L80.6079 53.1154V27.9923L51.5073 20.8536Z" fill="#AFB1B8"/>
<path d="M67.1039 64.7791L38 57.6375V32.514L67.1039 39.6528V64.7791Z" fill="#AFB1B8"/>
<path d="M51.9897 22.4579L77.4484 28.7019L66.6215 38.0518L41.1594 31.8049L51.9897 22.4579ZM51.5073 20.8536L38 32.5146L67.1039 39.6531L80.6078 27.9922L51.5073 20.8536Z" fill="#AFB1B8"/>
<path d="M68.7414 63.3657L80.6078 53.1185L68.7414 50.2062V63.3657Z" fill="#AFB1B8"/>
</svg>
