<svg width="170" height="81" viewBox="0 0 170 81" fill="none" xmlns="http://www.w3.org/2000/svg">
<rect x="0.5" y="0.5" width="169" height="80" rx="3.5" stroke="#AFB1B8"/>
<g clip-path="url(#clip0_75273_731)">
<path d="M58.7569 58.8221C59.0006 59.0983 59.1304 59.4441 59.1236 59.7991C59.136 60.0307 59.0914 60.2618 58.993 60.4754C58.8947 60.689 58.7451 60.8797 58.5554 61.0332C58.082 61.3605 57.4956 61.5205 56.9037 61.4838H54V55.2924H56.8442C57.4057 55.2582 57.9626 55.4036 58.42 55.7037C58.6036 55.8445 58.7491 56.0224 58.8448 56.2235C58.9406 56.4245 58.984 56.6431 58.9716 56.8622C58.9883 57.2037 58.8712 57.5395 58.6413 57.8089C58.4206 58.0549 58.1156 58.2254 57.7758 58.2928C58.161 58.3572 58.5087 58.5448 58.7569 58.8221ZM55.3511 57.8875H56.5667C56.843 57.9062 57.1174 57.8332 57.3397 57.6819C57.431 57.6061 57.502 57.5122 57.5473 57.4073C57.5925 57.3024 57.6108 57.1893 57.6007 57.0769C57.6093 56.9649 57.5906 56.8526 57.5461 56.748C57.5015 56.6434 57.4322 56.5491 57.343 56.472C57.1141 56.3164 56.8312 56.2422 56.5469 56.2633H55.3511V57.8875ZM57.4587 60.2619C57.5562 60.1843 57.6329 60.0872 57.6828 59.9781C57.7326 59.869 57.7543 59.7508 57.7461 59.6328C57.7535 59.5133 57.7309 59.3939 57.6799 59.2838C57.6289 59.1737 57.551 59.0757 57.4521 58.9976C57.2142 58.8361 56.9217 58.7569 56.6262 58.7738H55.3511V60.4766H56.6427C56.9334 60.492 57.2212 60.4163 57.4587 60.2619Z" fill="#AFB1B8"/>
<path d="M64.5709 61.4839L62.9886 59.0641H62.394V61.4839H61.033V55.2924H63.6096C64.2591 55.2509 64.9012 55.4393 65.4034 55.8187C65.7635 56.1547 65.9808 56.5975 66.0159 57.0672C66.051 57.537 65.9018 58.0027 65.595 58.3806C65.2771 58.714 64.8428 58.9364 64.3661 59.0097L66.0508 61.4839H64.5709ZM62.394 58.2203H63.5072C64.2802 58.2203 64.6667 57.9077 64.6667 57.2826C64.6746 57.155 64.6534 57.0272 64.6045 56.9074C64.5556 56.7877 64.48 56.6785 64.3826 56.5869C64.1383 56.4009 63.8237 56.3107 63.5072 56.3359H62.3807L62.394 58.2203Z" fill="#AFB1B8"/>
<path d="M72.0102 60.2376H69.2981L68.8191 61.4837H67.392L69.8828 55.3618H71.4255L73.9063 61.4837H72.4793L72.0102 60.2376ZM71.6468 59.2999L70.6558 56.6866L69.6648 59.2999H71.6468Z" fill="#AFB1B8"/>
<path d="M81.3224 61.4838H79.9713L76.9421 57.2735V61.4838H75.5943V55.2924H76.9421L79.9713 59.5269V55.2924H81.3224V61.4838Z" fill="#AFB1B8"/>
<path d="M89.0326 60.0018C88.7532 60.4692 88.3276 60.8495 87.8103 61.0937C87.2222 61.3657 86.5695 61.4998 85.9109 61.4839H83.506V55.2924H85.9109C86.5684 55.2767 87.2202 55.4075 87.8103 55.6735C88.3275 55.9122 88.7536 56.2886 89.0326 56.7533C89.3107 57.2569 89.4556 57.8133 89.4556 58.3776C89.4556 58.9418 89.3107 59.4982 89.0326 60.0018ZM87.4866 59.8536C87.8722 59.4423 88.0842 58.9181 88.0842 58.376C88.0842 57.834 87.8722 57.3098 87.4866 56.8985C87.0205 56.5259 86.4127 56.3368 85.7952 56.3722H84.8571V60.3799H85.7952C86.4127 60.4153 87.0205 60.2261 87.4866 59.8536Z" fill="#AFB1B8"/>
<path d="M72.8558 20.8536C72.8558 20.8536 90.2945 26.8818 89.9245 35.6049V50.3591C89.9245 50.3591 72.4991 44.328 72.8624 35.6049L72.8558 20.8536Z" fill="#AFB1B8"/>
<path d="M105.46 46.9049C108.754 44.8296 112.563 43.5442 116.54 43.1664V38.5478C111.958 40.1648 108.071 43.0967 105.46 46.9049Z" fill="#AFB1B8"/>
<path d="M103.482 48.2964C106.177 43.3265 110.85 39.4914 116.54 37.58V24.2715C116.54 24.2715 91.705 32.8585 92.2303 45.2808V66.287C92.2303 66.287 93.3369 65.9029 95.0778 65.183C95.0778 64.5115 95.0778 63.834 95.1571 63.1535C95.6711 57.3865 98.6654 52.0424 103.482 48.2964Z" fill="#AFB1B8"/>
<path d="M101.12 56.1C101.25 54.6432 101.541 53.2021 101.989 51.799C98.9896 55.034 97.1734 59.0484 96.7956 63.2775C96.7592 63.6768 96.7394 64.076 96.7295 64.4874C98.14 63.8673 99.7818 63.093 101.506 62.1826C101.066 60.1817 100.936 58.1341 101.12 56.1Z" fill="#AFB1B8"/>
<path d="M102.107 56.1756C101.942 58.0159 102.045 59.8682 102.415 61.6835C109.2 57.9662 116.824 52.2224 116.53 45.2808V44.6759C111.682 45.1726 107.147 47.1129 103.62 50.1989C102.795 52.1113 102.285 54.1257 102.107 56.1756Z" fill="#AFB1B8"/>
</g>
<defs>
<clipPath id="clip0_75273_731">
<rect width="106" height="52.8261" fill="white" transform="translate(32 14.087)"/>
</clipPath>
</defs>
</svg>
